<svg width="122" height="65" viewBox="0 0 122 65" fill="none" xmlns="http://www.w3.org/2000/svg">
<path d="M64.5094 54.442L27.1404 19.7123C21.785 14.7352 14.7446 11.9688 7.43349 11.9688C5.93854 11.9688 5.5027 14.009 6.86716 14.6198L8.00839 15.1307L11.7863 16.568L11.8878 16.6208C13.813 17.6229 15.6239 18.8306 17.2889 20.2227L18.8083 21.4957L59.2802 59.9459C60.7773 61.3683 62.5832 62.425 64.5565 63.0334C65.8344 63.4274 67.164 63.6278 68.5011 63.6278H70.1799H73.0661C73.8231 63.6278 74.5786 63.5569 75.3225 63.4162C77.5699 62.991 79.6515 61.9394 81.3273 60.3827L86.852 55.2506L93.6313 48.2033C93.9515 47.8703 94.177 47.4579 94.2844 47.0085C94.8858 44.4913 91.8328 42.7436 89.9667 44.5369L81.5958 52.5814L78.8204 54.9603C77.8091 55.8271 76.6158 56.4554 75.3288 56.7986C74.5822 56.9977 73.8129 57.0985 73.0403 57.0985H71.27C70.5454 57.0985 69.823 57.0192 69.1157 56.862C67.3925 56.4791 65.8024 55.6437 64.5094 54.442Z" fill="#2074F3" stroke="#2074F3"/>
<path d="M63.5641 10.183L26.1951 44.9127C20.8397 49.8898 13.7993 52.6562 6.48817 52.6562C4.99323 52.6562 4.55739 50.616 5.92185 50.0052L7.06307 49.4943L10.841 48.057L10.9425 48.0042C12.8676 47.0021 14.6786 45.7944 16.3436 44.4023L17.863 43.1293L58.3349 4.67907C59.832 3.25674 61.6379 2.20002 63.6112 1.59156C64.889 1.19757 66.2187 0.997246 67.5558 0.997246H69.2346H72.1207C72.8778 0.997246 73.6333 1.06807 74.3771 1.20881C76.6246 1.634 78.7062 2.68555 80.382 4.24228L85.9067 9.37438L92.6859 16.4217C93.0062 16.7547 93.2317 17.1671 93.3391 17.6165C93.9405 20.1337 90.8875 21.8814 89.0214 20.0881L80.6505 12.0436L77.8751 9.66469C76.8638 8.79785 75.6705 8.16957 74.3835 7.82637C73.6369 7.6273 72.8676 7.52648 72.095 7.52648H70.3247C69.6001 7.52648 68.8777 7.60578 68.1704 7.76297C66.4471 8.1459 64.8571 8.98126 63.5641 10.183Z" fill="#2074F3" stroke="#2074F3"/>
<path d="M59.0905 41.707V22.4084L61.2289 20.625V41.707L67.1335 42.2483L70.5485 41.707L68.0271 44.0317H57.6543L59.0905 41.707Z" fill="black" stroke="black"/>
<path d="M76.0585 20.625L73.998 22.2377H78.4898V42.6246H73.998L76.0585 44.196H84.1353L85.7425 42.6246H80.4678V21.6588H83.1875L84.1353 20.625H76.0585Z" fill="black" stroke="black"/>
<path d="M100.437 35.0176H99.2065C98.6981 35.0176 98.2827 35.0713 97.9604 35.1787C97.6418 35.2861 97.4072 35.3936 97.2568 35.501C97.1064 35.6084 97.0312 35.6621 97.0312 35.6621C97.0241 35.6478 96.9865 35.5869 96.9185 35.4795C96.8504 35.3721 96.7842 35.2575 96.7197 35.1357C96.6553 35.0104 96.623 34.9191 96.623 34.8618C96.623 34.7472 96.7018 34.6541 96.8594 34.5825C97.0169 34.5109 97.221 34.4572 97.4717 34.4214C97.7223 34.382 97.9873 34.3551 98.2666 34.3408C98.5495 34.3265 98.8145 34.3193 99.0615 34.3193C99.3766 34.3193 99.6828 34.3283 99.98 34.3462C100.281 34.3605 100.607 34.3784 100.958 34.3999C101.144 34.4106 101.274 34.4429 101.35 34.4966C101.428 34.5467 101.475 34.6147 101.489 34.7007C101.504 34.783 101.513 34.8797 101.516 34.9907C101.434 35.2736 101.308 35.5457 101.14 35.8071C100.975 36.0685 100.791 36.312 100.587 36.5376C100.386 36.7596 100.191 36.9548 100.001 37.123C99.8117 37.2913 99.6523 37.4256 99.5234 37.5259C99.3945 37.6226 99.3211 37.6763 99.3032 37.687C99.7866 37.7515 100.215 37.8732 100.587 38.0522C100.959 38.2313 101.251 38.4784 101.462 38.7935C101.674 39.105 101.779 39.4953 101.779 39.9644C101.779 40.4299 101.661 40.8291 101.425 41.1621C101.188 41.4951 100.866 41.7511 100.458 41.9302C100.053 42.1092 99.5951 42.1987 99.083 42.1987C98.8395 42.1987 98.5728 42.1755 98.2827 42.1289C97.9927 42.0859 97.7152 42.0233 97.4502 41.9409C97.1888 41.855 96.974 41.7547 96.8057 41.6401C96.6374 41.5256 96.5532 41.4002 96.5532 41.2642C96.5532 41.1997 96.5801 41.1191 96.6338 41.0225L96.9722 40.437C97.1978 40.591 97.4341 40.7503 97.6812 40.915C97.9282 41.0762 98.1807 41.214 98.4385 41.3286C98.6963 41.4396 98.9523 41.4951 99.2065 41.4951C99.5181 41.4951 99.7866 41.4199 100.012 41.2695C100.238 41.1191 100.411 40.9204 100.533 40.6733C100.655 40.4227 100.716 40.1541 100.716 39.8677C100.716 39.4738 100.592 39.1605 100.345 38.9277C100.098 38.695 99.7741 38.5285 99.373 38.4282C98.9756 38.328 98.5495 38.2832 98.0947 38.2939V37.9824C98.0947 37.8678 98.1144 37.7962 98.1538 37.7676C98.1968 37.7354 98.2254 37.7121 98.2397 37.6978C98.4761 37.5617 98.7142 37.388 98.9541 37.1768C99.1976 36.9619 99.4232 36.731 99.6309 36.4839C99.8421 36.2332 100.019 35.9808 100.163 35.7266C100.306 35.4723 100.397 35.236 100.437 35.0176ZM103.756 35.7534C104.032 35.2521 104.411 34.8708 104.895 34.6094C105.382 34.3444 105.911 34.2119 106.484 34.2119C106.581 34.2119 106.706 34.2191 106.86 34.2334C107.014 34.2441 107.168 34.2656 107.322 34.2979C107.476 34.3301 107.605 34.3766 107.709 34.4375C107.816 34.4948 107.87 34.57 107.87 34.6631C107.87 34.7025 107.859 34.7383 107.838 34.7705L107.419 35.5332C107.179 35.3327 106.95 35.1877 106.731 35.0981C106.517 35.005 106.314 34.9585 106.125 34.9585C105.813 34.9585 105.544 35.0605 105.319 35.2646C105.093 35.4652 104.907 35.7284 104.76 36.0542C104.613 36.38 104.504 36.731 104.433 37.1069C104.365 37.4829 104.331 37.8446 104.331 38.1919C104.331 38.2635 104.331 38.3333 104.331 38.4014C104.334 38.4658 104.338 38.5285 104.341 38.5894C104.649 38.2313 104.93 37.9663 105.185 37.7944C105.442 37.619 105.677 37.5026 105.888 37.4453C106.103 37.388 106.298 37.3594 106.474 37.3594C106.918 37.3594 107.294 37.4704 107.602 37.6924C107.913 37.9144 108.149 38.2008 108.311 38.5518C108.472 38.9027 108.552 39.2715 108.552 39.6582C108.552 39.959 108.499 40.2598 108.391 40.5605C108.287 40.8613 108.128 41.137 107.913 41.3877C107.698 41.6348 107.424 41.8335 107.091 41.9839C106.762 42.1343 106.373 42.2095 105.926 42.2095C105.278 42.2095 104.755 42.0537 104.357 41.7422C103.96 41.4271 103.67 40.9956 103.487 40.4478C103.308 39.8963 103.219 39.2697 103.219 38.5679C103.219 38.2563 103.235 37.9305 103.267 37.5903C103.303 37.2502 103.36 36.9207 103.439 36.6021C103.518 36.2798 103.623 35.9969 103.756 35.7534ZM104.384 39.293C104.384 39.4684 104.404 39.6815 104.443 39.9321C104.486 40.1792 104.563 40.4227 104.674 40.6626C104.789 40.9025 104.95 41.103 105.158 41.2642C105.369 41.4253 105.643 41.5059 105.979 41.5059C106.409 41.5059 106.757 41.3394 107.021 41.0063C107.286 40.6733 107.419 40.2132 107.419 39.626C107.419 39.1139 107.32 38.7272 107.124 38.4658C106.927 38.2044 106.674 38.0737 106.366 38.0737C106.166 38.0737 105.951 38.1328 105.722 38.251C105.496 38.3691 105.283 38.507 105.083 38.6646C104.886 38.8221 104.721 38.9635 104.588 39.0889C104.459 39.2106 104.391 39.2786 104.384 39.293ZM112.838 42.2095C112.219 42.2095 111.684 42.0448 111.232 41.7153C110.781 41.3823 110.434 40.9204 110.19 40.3296C109.947 39.7352 109.825 39.0459 109.825 38.2617C109.825 37.474 109.94 36.7757 110.169 36.167C110.398 35.5583 110.736 35.0802 111.184 34.7329C111.632 34.3856 112.183 34.2119 112.838 34.2119C113.497 34.2119 114.049 34.3856 114.493 34.7329C114.94 35.0802 115.279 35.5583 115.508 36.167C115.737 36.7757 115.852 37.474 115.852 38.2617C115.852 39.0459 115.73 39.7352 115.486 40.3296C115.243 40.9204 114.896 41.3823 114.444 41.7153C113.993 42.0448 113.458 42.2095 112.838 42.2095ZM112.838 41.5059C113.279 41.5059 113.63 41.3626 113.891 41.0762C114.156 40.7897 114.346 40.4012 114.46 39.9106C114.575 39.4201 114.632 38.8704 114.632 38.2617C114.632 37.6136 114.575 37.0389 114.46 36.5376C114.346 36.0327 114.156 35.637 113.891 35.3506C113.63 35.0605 113.279 34.9155 112.838 34.9155C112.402 34.9155 112.051 35.0605 111.786 35.3506C111.524 35.637 111.334 36.0327 111.216 36.5376C111.102 37.0389 111.044 37.6136 111.044 38.2617C111.044 38.8704 111.102 39.4201 111.216 39.9106C111.334 40.4012 111.524 40.7897 111.786 41.0762C112.051 41.3626 112.402 41.5059 112.838 41.5059Z" fill="black"/>
</svg>
