<svg width="822" height="822" viewBox="0 0 822 822" fill="none" xmlns="http://www.w3.org/2000/svg">
<circle cx="411" cy="411" r="410.5" fill="white" stroke="black"/>
<path d="M329.776 404L164.271 155.835H253.475L419.916 404H329.776ZM342.867 268.042L298.732 203.523L327.719 155.835H416.362L342.867 268.042ZM159.221 404L238.327 288.427L282.649 355.751L253.662 404H159.221ZM442.544 404V155.835H525.203V404H442.544ZM538.294 404V354.442H579.25V323.024H654.241V404H538.294Z" fill="#2074F3"/>
<path d="M159.288 520.329V620H146.275V520.329H159.288ZM219.648 540.206C229.181 540.206 236.903 543.114 242.814 548.929C248.724 554.649 251.68 562.943 251.68 573.811V620H238.81V575.67C238.81 567.853 236.855 561.894 232.947 557.795C229.038 553.6 223.699 551.503 216.931 551.503C210.067 551.503 204.585 553.648 200.486 557.938C196.482 562.228 194.48 568.472 194.48 576.671V620H181.467V541.636H194.48V552.79C197.054 548.786 200.533 545.688 204.919 543.495C209.399 541.302 214.309 540.206 219.648 540.206ZM300.678 621.287C294.672 621.287 289.286 620.286 284.519 618.284C279.753 616.187 275.987 613.327 273.222 609.704C270.458 605.986 268.932 601.744 268.646 596.977H282.088C282.47 600.886 284.281 604.079 287.522 606.558C290.859 609.037 295.197 610.276 300.535 610.276C305.493 610.276 309.401 609.18 312.261 606.987C315.121 604.794 316.551 602.03 316.551 598.693C316.551 595.261 315.026 592.735 311.975 591.114C308.925 589.398 304.206 587.73 297.818 586.109C292.003 584.584 287.236 583.058 283.518 581.533C279.896 579.912 276.75 577.577 274.08 574.526C271.506 571.38 270.219 567.281 270.219 562.228C270.219 558.224 271.411 554.554 273.794 551.217C276.178 547.88 279.562 545.259 283.947 543.352C288.333 541.35 293.338 540.349 298.962 540.349C307.638 540.349 314.645 542.542 319.983 546.927C325.322 551.312 328.182 557.318 328.563 564.945H315.55C315.264 560.846 313.596 557.557 310.545 555.078C307.59 552.599 303.586 551.36 298.533 551.36C293.862 551.36 290.144 552.361 287.379 554.363C284.615 556.365 283.232 558.987 283.232 562.228C283.232 564.802 284.043 566.947 285.663 568.663C287.379 570.284 289.477 571.618 291.955 572.667C294.529 573.62 298.057 574.717 302.537 575.956C308.162 577.481 312.738 579.007 316.265 580.532C319.793 581.962 322.796 584.155 325.274 587.11C327.848 590.065 329.183 593.926 329.278 598.693C329.278 602.983 328.087 606.844 325.703 610.276C323.32 613.708 319.936 616.425 315.55 618.427C311.26 620.334 306.303 621.287 300.678 621.287ZM354.369 528.909C351.891 528.909 349.793 528.051 348.077 526.335C346.361 524.619 345.503 522.522 345.503 520.043C345.503 517.564 346.361 515.467 348.077 513.751C349.793 512.035 351.891 511.177 354.369 511.177C356.753 511.177 358.755 512.035 360.375 513.751C362.091 515.467 362.949 517.564 362.949 520.043C362.949 522.522 362.091 524.619 360.375 526.335C358.755 528.051 356.753 528.909 354.369 528.909ZM360.661 541.636V620H347.648V541.636H360.661ZM415.158 540.349C421.926 540.349 427.837 541.827 432.89 544.782C438.038 547.737 441.851 551.455 444.33 555.936V541.636H457.486V621.716C457.486 628.866 455.96 635.206 452.91 640.735C449.859 646.36 445.474 650.745 439.754 653.891C434.129 657.037 427.551 658.61 420.02 658.61C409.724 658.61 401.144 656.179 394.28 651.317C387.416 646.455 383.364 639.829 382.125 631.44H394.995C396.425 636.207 399.38 640.02 403.861 642.88C408.341 645.835 413.728 647.313 420.02 647.313C427.17 647.313 432.985 645.073 437.466 640.592C442.042 636.111 444.33 629.819 444.33 621.716V605.271C441.756 609.847 437.942 613.66 432.89 616.711C427.837 619.762 421.926 621.287 415.158 621.287C408.198 621.287 401.859 619.571 396.139 616.139C390.514 612.707 386.081 607.893 382.84 601.696C379.598 595.499 377.978 588.445 377.978 580.532C377.978 572.524 379.598 565.517 382.84 559.511C386.081 553.41 390.514 548.691 396.139 545.354C401.859 542.017 408.198 540.349 415.158 540.349ZM444.33 580.675C444.33 574.764 443.138 569.616 440.755 565.231C438.371 560.846 435.13 557.509 431.031 555.221C427.027 552.838 422.594 551.646 417.732 551.646C412.87 551.646 408.437 552.79 404.433 555.078C400.429 557.366 397.235 560.703 394.852 565.088C392.468 569.473 391.277 574.621 391.277 580.532C391.277 586.538 392.468 591.781 394.852 596.262C397.235 600.647 400.429 604.032 404.433 606.415C408.437 608.703 412.87 609.847 417.732 609.847C422.594 609.847 427.027 608.703 431.031 606.415C435.13 604.032 438.371 600.647 440.755 596.262C443.138 591.781 444.33 586.586 444.33 580.675ZM518.372 540.206C524.283 540.206 529.622 541.493 534.388 544.067C539.155 546.546 542.873 550.311 545.542 555.364C548.307 560.417 549.689 566.566 549.689 573.811V620H536.819V575.67C536.819 567.853 534.865 561.894 530.956 557.795C527.048 553.6 521.709 551.503 514.94 551.503C508.076 551.503 502.595 553.648 498.495 557.938C494.491 562.228 492.489 568.472 492.489 576.671V620H479.476V514.18H492.489V552.79C495.063 548.786 498.591 545.688 503.071 543.495C507.647 541.302 512.748 540.206 518.372 540.206ZM586.819 552.361V598.55C586.819 602.363 587.629 605.08 589.25 606.701C590.871 608.226 593.683 608.989 597.687 608.989H607.268V620H595.542C588.297 620 582.863 618.332 579.24 614.995C575.617 611.658 573.806 606.177 573.806 598.55V552.361H563.653V541.636H573.806V521.902H586.819V541.636H607.268V552.361H586.819ZM650.777 621.287C644.771 621.287 639.385 620.286 634.618 618.284C629.851 616.187 626.086 613.327 623.321 609.704C620.556 605.986 619.031 601.744 618.745 596.977H632.187C632.568 600.886 634.38 604.079 637.621 606.558C640.958 609.037 645.295 610.276 650.634 610.276C655.591 610.276 659.5 609.18 662.36 606.987C665.22 604.794 666.65 602.03 666.65 598.693C666.65 595.261 665.125 592.735 662.074 591.114C659.023 589.398 654.304 587.73 647.917 586.109C642.102 584.584 637.335 583.058 633.617 581.533C629.994 579.912 626.848 577.577 624.179 574.526C621.605 571.38 620.318 567.281 620.318 562.228C620.318 558.224 621.51 554.554 623.893 551.217C626.276 547.88 629.661 545.259 634.046 543.352C638.431 541.35 643.436 540.349 649.061 540.349C657.736 540.349 664.743 542.542 670.082 546.927C675.421 551.312 678.281 557.318 678.662 564.945H665.649C665.363 560.846 663.695 557.557 660.644 555.078C657.689 552.599 653.685 551.36 648.632 551.36C643.961 551.36 640.243 552.361 637.478 554.363C634.713 556.365 633.331 558.987 633.331 562.228C633.331 564.802 634.141 566.947 635.762 568.663C637.478 570.284 639.575 571.618 642.054 572.667C644.628 573.62 648.155 574.717 652.636 575.956C658.261 577.481 662.837 579.007 666.364 580.532C669.891 581.962 672.894 584.155 675.373 587.11C677.947 590.065 679.282 593.926 679.377 598.693C679.377 602.983 678.185 606.844 675.802 610.276C673.419 613.708 670.034 616.425 665.649 618.427C661.359 620.334 656.402 621.287 650.777 621.287Z" fill="#4B4B4B"/>
</svg>
