<svg width="801" height="370" viewBox="0 0 801 370" fill="none" xmlns="http://www.w3.org/2000/svg">
<rect x="0.5" y="35.5" width="800" height="301" rx="150.5" fill="white" stroke="black"/>
<ellipse cx="651" cy="186" rx="150" ry="151" fill="#2074F3"/>
<path d="M570.483 228.221C566.265 228.221 562.509 227.648 559.216 226.5C555.923 225.316 553.352 224.151 551.502 223.004L554.055 215.789C555.572 216.714 557.792 217.676 560.715 218.675C563.675 219.637 566.894 220.118 570.372 220.118C574.109 220.118 577.198 219.248 579.64 217.509C582.119 215.733 583.969 213.587 585.19 211.071C586.411 208.555 587.022 206.132 587.022 203.801C587.022 200.101 586.097 197.215 584.247 195.143C582.397 193.071 579.844 191.609 576.588 190.758C573.369 189.907 569.669 189.482 565.488 189.482L564.489 183.488L570.261 181.157C572.481 180.195 574.682 179.159 576.865 178.049C579.048 176.902 580.861 175.496 582.304 173.831C583.747 172.129 584.469 169.946 584.469 167.282C584.469 163.878 583.359 161.158 581.139 159.123C578.919 157.088 576.107 156.071 572.703 156.071C570.594 156.071 568.244 156.33 565.654 156.848C563.064 157.366 560.271 158.439 557.274 160.067L554.499 152.63C557.903 150.78 561.214 149.54 564.433 148.911C567.689 148.282 570.816 147.968 573.813 147.968C578.068 147.968 581.805 148.726 585.024 150.243C588.28 151.76 590.814 153.851 592.627 156.515C594.44 159.142 595.347 162.139 595.347 165.506C595.347 169.058 594.348 172.388 592.35 175.496C590.389 178.567 587.651 181.046 584.136 182.933L581.361 183.821L583.803 184.376C586.171 185.227 588.428 186.559 590.574 188.372C592.72 190.148 594.477 192.368 595.846 195.032C597.215 197.659 597.9 200.656 597.9 204.023C597.9 208.278 596.716 212.255 594.348 215.955C592.017 219.618 588.779 222.578 584.635 224.835C580.528 227.093 575.811 228.221 570.483 228.221ZM644.444 228.554C638.857 228.554 634.195 227.463 630.458 225.279C626.721 223.096 623.743 220.173 621.523 216.51C619.34 212.847 617.767 208.796 616.805 204.356C615.843 199.879 615.362 195.365 615.362 190.814C615.362 185.745 616.176 180.713 617.804 175.718C619.432 170.723 621.819 166.19 624.964 162.12C628.146 158.013 632.049 154.739 636.674 152.297C641.299 149.855 646.627 148.634 652.658 148.634C654.508 148.634 656.414 148.837 658.375 149.244C660.336 149.651 662.315 150.299 664.313 151.187L661.871 158.513C660.28 157.773 658.689 157.273 657.098 157.014C655.544 156.755 654.064 156.626 652.658 156.626C647.441 156.626 642.835 158.087 638.839 161.01C634.88 163.896 631.79 167.892 629.57 172.998C627.35 178.104 626.24 183.969 626.24 190.592C626.24 193.626 626.481 196.882 626.962 200.36C627.48 203.801 628.386 207.057 629.681 210.128C630.976 213.199 632.789 215.715 635.12 217.676C637.488 219.6 640.522 220.562 644.222 220.562C647.108 220.562 649.643 219.822 651.826 218.342C654.009 216.825 655.711 214.753 656.932 212.126C658.153 209.462 658.763 206.428 658.763 203.024C658.763 197.955 657.579 194.125 655.211 191.535C652.843 188.908 649.994 187.595 646.664 187.595C646.109 187.595 645.536 187.632 644.944 187.706C644.389 187.78 643.667 187.928 642.779 188.15C640.929 188.594 639.19 188.649 637.562 188.316C635.934 187.983 634.51 187.484 633.289 186.818C632.068 186.115 631.124 185.449 630.458 184.82C634.232 182.822 637.229 181.453 639.449 180.713C641.706 179.973 644.111 179.603 646.664 179.603C651.104 179.603 655.045 180.509 658.486 182.322C661.964 184.098 664.683 186.725 666.644 190.203C668.642 193.681 669.641 197.955 669.641 203.024C669.641 206.206 669.049 209.314 667.865 212.348C666.681 215.382 664.979 218.12 662.759 220.562C660.539 223.004 657.875 224.946 654.767 226.389C651.696 227.833 648.255 228.554 644.444 228.554ZM715.961 228.776C709.93 228.776 704.658 227.148 700.144 223.892C695.667 220.599 692.17 215.937 689.654 209.906C687.138 203.838 685.88 196.623 685.88 188.261C685.88 180.047 687.101 172.887 689.543 166.782C692.022 160.677 695.5 155.941 699.977 152.574C704.454 149.207 709.745 147.524 715.85 147.524C720.438 147.524 724.582 148.486 728.282 150.41C731.982 152.297 735.146 155.035 737.773 158.624C740.4 162.176 742.416 166.468 743.822 171.5C745.228 176.495 745.931 182.082 745.931 188.261C745.931 194.958 745.136 200.841 743.545 205.91C741.991 210.979 739.826 215.215 737.051 218.619C734.313 221.986 731.131 224.521 727.505 226.223C723.879 227.925 720.031 228.776 715.961 228.776ZM715.961 220.784C721.918 220.784 726.58 217.916 729.947 212.181C733.351 206.446 735.053 198.473 735.053 188.261C735.053 178.049 733.351 170.038 729.947 164.229C726.58 158.42 721.918 155.516 715.961 155.516C709.967 155.516 705.268 158.42 701.864 164.229C698.46 170.038 696.758 178.049 696.758 188.261C696.758 198.473 698.46 206.446 701.864 212.181C705.268 217.916 709.967 220.784 715.961 220.784Z" fill="white"/>
<path d="M214.257 285L94.1966 84.348H124.833L165.405 157.488L167.889 164.388L170.097 157.488L211.221 84.348H240.477L181.965 180.948L244.065 285H214.257ZM90.6086 285L145.809 193.92C147.925 196.772 149.765 200.084 151.329 203.856C152.985 207.536 153.905 211.4 154.089 215.448C154.273 219.496 153.261 223.36 151.053 227.04L119.037 285H90.6086ZM278.558 285V84.348H305.054V264.852H388.958L388.682 285H278.558ZM421.949 285V84.348H447.341V285H421.949Z" fill="black"/>
</svg>
